<?xml version="1.0" encoding="utf-8"?>
<!-- Generator: Adobe Illustrator 26.5.0, SVG Export Plug-In . SVG Version: 6.00 Build 0)  -->
<svg version="1.1" id="Layer_1" xmlns="http://www.w3.org/2000/svg" xmlns:xlink="http://www.w3.org/1999/xlink" x="0px" y="0px"
	 viewBox="0 0 429.9 433.8" style="enable-background:new 0 0 429.9 433.8;" xml:space="preserve">
<style type="text/css">
	.st0{fill:#FDA47B;stroke:#FFFFFF;stroke-width:3;stroke-miterlimit:10;}
	.st1{fill:#FFFFFF;stroke:#FFFFFF;stroke-width:6;stroke-miterlimit:10;}
	.st2{fill:#FFFFFF;stroke:#FDA47B;stroke-width:6;stroke-miterlimit:10;}
</style>
<path class="st0" d="M410.1,247.7c16.6,103.1-92.3,170.8-201.9,170.8S31.7,328.2,31.7,223.7S87.3,14.8,196.9,14.8
	c68.5,0,89.9,42.7,129.9,105.9C350.8,158.5,403,203.9,410.1,247.7z"/>
<path class="st1" d="M239.5,121.6c27.5,0,48.5,16.2,62.3,48.3c14.5,33.6,16.6,74.1,16.6,95.4c0,28.5-10.9,52.7-32.3,71.8
	c-19.5,17.4-46.9,30.1-81.5,37.8c-5.2,1.2-10.6,1.8-16.2,1.8c-33.7,0-71.8-21.8-90.6-51.7c-12.4-19.9-14.7-40.6-6-58.4
	c25.2-52.1,43.6-83.3,61.2-104.5C177.5,132.9,201.7,121.6,239.5,121.6 M239.5,118.7c-37,0-62.6,10.5-88.5,41.4
	c-19.1,22.7-38,56.3-61.6,105c-25.1,51.8,40,114,99,114c5.7,0,11.3-0.5,16.9-1.8c65.9-14.7,115.9-50.3,115.9-112.1
	S303.5,118.7,239.5,118.7L239.5,118.7z"/>
<path class="st2" d="M183.9,175.8h82.8c45.7,0,66.1,23.5,66.1,51.8c0,23.8-13.8,39.3-29.5,44.8c14.6,4.7,36.2,19.3,36.2,48.9
	c0,38.2-29.8,60.6-70.6,60.6h-85V175.8z M261.3,260.7c28.8,0,40.1-11.3,40.1-30.3c0-17.6-13-29.7-36.3-29.7h-50.6v60H261.3z
	 M214.5,357.1h49.8c26.1,0,43-11.8,43-36.1c0-21.3-14-35.5-47.4-35.5h-45.5v71.6L214.5,357.1L214.5,357.1z"/>
</svg>
