<?xml version="1.0" encoding="utf-8"?>
<!-- Generator: Adobe Illustrator 25.1.0, SVG Export Plug-In . SVG Version: 6.00 Build 0)  -->
<svg version="1.1" id="Layer_1" xmlns="http://www.w3.org/2000/svg" xmlns:xlink="http://www.w3.org/1999/xlink" x="0px" y="0px"
	 viewBox="0 0 293 293" style="enable-background:new 0 0 293 293;" xml:space="preserve">
<style type="text/css">
	.st0{fill:#FDA47B;}
	.st1{fill:#62B589;}
	.st2{fill:#FFFFFF;}
</style>
<path class="st0" d="M100,109.7c32.1-9.8,85.5-5,119.2,10.1c33.9,15,47.5,40.2,41.4,60.9c-6.1,20.5-32.3,36.5-68.9,46.1
	c-36.4,9.6-83.4,12.7-109.1,1.9c-26-10.9-30.9-35.7-28.1-60.3C57.4,143.8,68,119.5,100,109.7z"/>
<path class="st1" d="M98.8,144c-25.3-11.5-42.2-41.4-38.6-66.2c3.6-25,27.8-44.8,55-52.1c27.1-7.3,57.2-1.9,84.2,12
	c26.8,13.8,50.5,36.3,48.6,55c-2,18.8-29.4,33.9-60,45S124,155.4,98.8,144z"/>
<g>
	<path class="st2" d="M88.6,37.1h80c44.1,0,63.8,22.7,63.8,50c0,23-13.3,38-28.5,43.3c14.1,4.5,35,18.6,35,47.2
		c0,36.9-28.8,58.5-68.2,58.5H88.6V37.1z M163.4,119.1c27.8,0,38.7-10.9,38.7-29.3c0-17-12.6-28.7-35.1-28.7h-48.9v58H163.4z
		 M118.2,212.2h48.1c25.2,0,41.5-11.4,41.5-34.9c0-20.6-13.5-34.3-45.8-34.3h-43.9v69.2H118.2z"/>
</g>
</svg>
