<?xml version="1.0" encoding="utf-8"?>
<!-- Generator: Adobe Illustrator 25.2.1, SVG Export Plug-In . SVG Version: 6.00 Build 0)  -->
<svg version="1.1" id="Layer_1" xmlns="http://www.w3.org/2000/svg" xmlns:xlink="http://www.w3.org/1999/xlink" x="0px" y="0px"
	 viewBox="0 0 1805.8 1451.5" style="enable-background:new 0 0 1805.8 1451.5;" xml:space="preserve">
<style type="text/css">
	.st0{fill:none;stroke:#FD9362;stroke-width:100;stroke-miterlimit:10;}
</style>
<g id="Layer_2_1_">
	<path class="st0" d="M1767.2,955.4c5.4,179.4-121.7,329.9-283.8,336c-125.2,4.6-234.9-78.5-280.4-199.7c-3.5-8.9-14.3-7.5-15.9,2.1
		c-30.8,171.2-154.8,301.4-307.1,307.1c-130.6,5-246-83.8-302-215.4c-2.2-5.3-7.9-7.1-12.1-3.9c-48,37.8-105.2,60.3-166.9,62.8
		C219.2,1251,68.2,1080.5,61.9,864.1s134.5-397.7,314.4-404.4c44.5-1.8,87.1,7.5,126.2,25.3c5.7,2.5,11.8-2.9,11.4-10.3
		c0-2.9-0.3-5.7-0.3-8.2C507.2,249.6,648,68.8,827.9,62c157.3-5.7,292.4,123.8,328.3,301c1,5.3,5.4,8.6,9.9,7.5
		c12.7-2.9,25.7-4.6,39.4-5.3c132.2-5,244.1,117,258.4,276l0,0c1.3,5.3,5.4,8.9,9.9,8.9C1631.8,649,1761.8,778.8,1767.2,955.4z"/>
</g>
<g id="Layer_1_1_">
	<path class="st0" d="M549.1,739.7l283.5,319.2c1.3,1.4,3.8,1.4,5.1,0l289.6-323.5"/>
	<line class="st0" x1="840.3" y1="486.1" x2="838.7" y2="1053.5"/>
</g>
</svg>
