<?xml version="1.0" encoding="utf-8"?>
<!-- Generator: Adobe Illustrator 25.1.0, SVG Export Plug-In . SVG Version: 6.00 Build 0)  -->
<svg version="1.1" xmlns="http://www.w3.org/2000/svg" xmlns:xlink="http://www.w3.org/1999/xlink" x="0px" y="0px"
	 viewBox="0 0 630 630" style="enable-background:new 0 0 630 630;" xml:space="preserve">
<style type="text/css">
	.st0{fill:none;stroke:#62B589;stroke-width:35;stroke-miterlimit:10;}
	.st1{fill:none;stroke:#000000;stroke-width:15;stroke-miterlimit:10;}
</style>
<g id="Layer_1">
	<line class="st0" x1="319.7" y1="438.8" x2="317.2" y2="596.2"/>
	<line class="st1" x1="824.3" y1="337.6" x2="823.2" y2="337.6"/>
	<polyline class="st0" points="222.8,500.5 318.5,606.3 407.8,498 	"/>
</g>
<g id="Layer_2">
	<path class="st0" d="M532.9,435.7c-2.2,0-447.6,1.6-455.3-7.1c-40.9-46.3-60.4-112.7-52.9-174.1c8.8-73,52.5-137.6,111.2-176.7
		c41-27.3,91.7-43.1,140.2-31.2c59.4,14.6,107.5,73.6,112,136.6c0.1,1.5,1.7,2.1,2.5,1c20.5-27.1,55.5-43.4,88.2-34.2
		c33.6,9.5,58.9,50.3,47.6,83.6c-0.1,0.4,0.2,0.8,0.5,0.6c18.7-12.1,45.1-13.2,63,1.4c18.3,14.9,22.4,47.1,5.5,62.3"/>
</g>
</svg>
