<?xml version="1.0" encoding="utf-8"?>
<!-- Generator: Adobe Illustrator 25.1.0, SVG Export Plug-In . SVG Version: 6.00 Build 0)  -->
<svg version="1.1" id="Layer_1" xmlns="http://www.w3.org/2000/svg" xmlns:xlink="http://www.w3.org/1999/xlink" x="0px" y="0px"
	 viewBox="0 0 630 630" style="enable-background:new 0 0 630 630;" xml:space="preserve">
<style type="text/css">
	.st0{fill:none;stroke:#F9F0ED;stroke-width:30;stroke-miterlimit:10;}
	.st1{fill:#FDA47B;stroke:#F9F0ED;stroke-width:30;stroke-miterlimit:10;}
</style>
<path class="st0" d="M469.3,537.9H125.2c-13.8,0-25-11.2-25-25V156.3c0-13.8,11.2-25,25-25h344.1c13.8,0,25,11.2,25,25v356.6
	C494.3,526.7,483.1,537.9,469.3,537.9z"/>
<ellipse class="st1" cx="227.8" cy="271.1" rx="9.3" ry="10.6"/>
<ellipse class="st1" cx="378.9" cy="271.1" rx="9.3" ry="10.6"/>
<ellipse class="st1" cx="226.5" cy="404" rx="9.3" ry="10.6"/>
<ellipse class="st1" cx="376" cy="403.4" rx="9.3" ry="10.6"/>
<path class="st0" d="M442.9,62.2c84.3-9.2,130.4,66.9,101.6,143.4"/>
<path class="st0" d="M498.3,21.7c84.3-9.2,130.4,66.9,101.6,143.4"/>
</svg>
