<?xml version="1.0" encoding="utf-8"?>
<!-- Generator: Adobe Illustrator 25.1.0, SVG Export Plug-In . SVG Version: 6.00 Build 0)  -->
<svg version="1.1" id="Layer_1" xmlns="http://www.w3.org/2000/svg" xmlns:xlink="http://www.w3.org/1999/xlink" x="0px" y="0px"
	 viewBox="0 0 435.2 626.9" style="enable-background:new 0 0 435.2 626.9;" xml:space="preserve">
<style type="text/css">
	.st0{opacity:0.7;fill:#FDB595;enable-background:new    ;}
</style>
<path class="st0" d="M541.6,2.4c-2.7,0,7.6,1038.2-0.9,1039.4c-6.1,0.9-171.6-0.5-170.5-1.4c52.4-53.2-2.1-74.3-22.8-110.4
	c-18.3-32.4,17.6-94.9,10.7-112.2c-23.2-56.4-114.6-66.2-65.8-138.3c18.5-27.1,46.4-55.4,34.8-84.3c-8-19-32.2-33.2-46.9-50.4
	c-24.4-28-21.1-62.6-9-93.6c12.4-31,33.2-60.4,43.3-91.7c3.8-11,5.9-23.1-2.1-33.2c-9.4-12-31.3-18.6-52.2-19.5
	c-20.9-0.8-41.6,2.6-62.2,5.4c-29.1,3.9-58.8,6.5-88.5,7.5c-17.2,0.7-35.5,0.5-49.9-5.5c-19.2-7.9-26.1-24.4-22.7-38.8
	c3.5-14.4,15.8-27.3,28-39.6c93-93.5,206.8-182.2,359.5-233.5C424.8,2.4,541.9,3,541.6,2.4z"/>
</svg>
