<?xml version="1.0" encoding="utf-8"?>
<!-- Generator: Adobe Illustrator 25.1.0, SVG Export Plug-In . SVG Version: 6.00 Build 0)  -->
<svg version="1.1" id="Layer_1" xmlns="http://www.w3.org/2000/svg" xmlns:xlink="http://www.w3.org/1999/xlink" x="0px" y="0px"
	 viewBox="0 0 927.8 262.9" style="enable-background:new 0 0 927.8 262.9;" xml:space="preserve">
<style type="text/css">
	.st0{opacity:0.7;fill:#FDB595;enable-background:new    ;}
</style>
<path class="st0" d="M-73.9,203.9c50.6-74.4,137-129.5,227.8-174.5c11.9-5.9,24.4-11.8,38.3-13.5c13.9-1.7,29.8,1.8,37.3,11.2
	c5.6,7.1,5.6,16,4.9,24.4c-1.2,14.5-3.9,29-7.9,43.2c-2.8,10-6.3,20.1-5.6,30.4s6.8,21,18.4,25.6c9.7,3.9,21.3,2.9,31.9,1.2
	c30.3-4.8,58.8-14.9,88.8-20.7c30-5.8,63.3-7.2,90.2,4.7c16.5,7.3,30,19.2,48.2,23c27.7,5.8,55.2-7.8,81.5-16.7
	c69.8-23.6,78.5,21.1,132.7,32.7c16.6,3.5,77.1-13.9,108.2-4.8c34.6,10.2,54.5,37,106.2,11.5c0.9-0.5,0.9,80.3,0,83.3
	C925.8,269-74.6,260-74.6,261.2C-74.3,261.3-73.9,204.1-73.9,203.9z"/>
</svg>
