<?xml version="1.0" encoding="utf-8"?>
<!-- Generator: Adobe Illustrator 25.1.0, SVG Export Plug-In . SVG Version: 6.00 Build 0)  -->
<svg version="1.1" id="Layer_1" xmlns="http://www.w3.org/2000/svg" xmlns:xlink="http://www.w3.org/1999/xlink" x="0px" y="0px"
	 viewBox="0 0 770.2 239.8" style="enable-background:new 0 0 770.2 239.8;" xml:space="preserve">
<style type="text/css">
	.st0{opacity:0.7;fill:#FDB595;}
</style>
<path class="st0" d="M-82.4,204.4c50.6-74.4,137-129.5,227.8-174.5c11.9-5.9,24.4-11.8,38.3-13.5c13.9-1.7,29.8,1.8,37.3,11.2
	c5.6,7.1,5.6,16,4.9,24.4c-1.2,14.5-3.9,29-7.9,43.2c-2.8,10-6.3,20.1-5.6,30.4c0.8,10.3,6.8,21,18.4,25.6
	c9.7,3.9,21.3,2.9,31.9,1.2c30.3-4.8,58.8-14.9,88.8-20.7c30-5.9,63.3-7.2,90.2,4.7c16.5,7.3,30,19.2,48.2,23
	c27.7,5.8,55.2-7.8,81.5-16.7c69.8-23.6,78.5,21.1,132.7,32.7c16.6,3.5,77.1-13.9,108.2-4.8c34.6,10.2,54.5,37,106.2,11.5
	c0.9-0.5,0.9,80.3,0,83.3c-1.2,4.1-1001.6-4.9-1001.6-3.7C-82.8,261.7-82.4,204.5-82.4,204.4z"/>
</svg>
