<?xml version="1.0" encoding="utf-8"?>
<!-- Generator: Adobe Illustrator 25.1.0, SVG Export Plug-In . SVG Version: 6.00 Build 0)  -->
<svg version="1.1" id="Layer_1" xmlns="http://www.w3.org/2000/svg" xmlns:xlink="http://www.w3.org/1999/xlink" x="0px" y="0px"
	 viewBox="0 0 770.2 172.8" style="enable-background:new 0 0 770.2 172.8;" xml:space="preserve">
<style type="text/css">
	.st0{opacity:0.7;fill:#FDB595;enable-background:new    ;}
</style>
<path class="st0" d="M-33.5,152C8.1,95.2,79.1,53,153.8,18.6c9.8-4.5,20.1-9,31.5-10.3s24.5,1.4,30.7,8.6c4.6,5.4,4.6,12.2,4,18.7
	c-1,11.1-3.2,22.2-6.5,33c-2.3,7.6-5.2,15.4-4.6,23.2c0.7,7.9,5.6,16.1,15.1,19.6c8,3,17.5,2.2,26.2,0.9c24.9-3.7,48.3-11.4,73-15.8
	c24.7-4.5,52-5.5,74.2,3.6c13.6,5.6,24.7,14.7,39.6,17.6c22.8,4.4,45.4-6,67-12.8c57.4-18,64.5,16.1,109.1,25
	c13.6,2.7,63.4-10.6,89-3.7c28.4,7.8,44.8,28.3,87.3,8.8c0.7-0.4,0.7,61.4,0,63.7c-1,3.1-823.5-3.7-823.5-2.8
	C-33.9,195.8-33.5,152.1-33.5,152z"/>
</svg>
