<?xml version="1.0" encoding="utf-8"?>
<!-- Generator: Adobe Illustrator 26.5.0, SVG Export Plug-In . SVG Version: 6.00 Build 0)  -->
<svg version="1.1" xmlns="http://www.w3.org/2000/svg" xmlns:xlink="http://www.w3.org/1999/xlink" x="0px" y="0px"
	 viewBox="0 0 384.4 285.6" style="enable-background:new 0 0 384.4 285.6;" xml:space="preserve">
<style type="text/css">
	.st0{display:none;}
	.st1{display:inline;fill:#FD9362;}
	.st2{display:inline;fill:#373735;stroke:#373735;stroke-width:3;stroke-miterlimit:10;}
	.st3{display:inline;}
	.st4{fill:#373735;stroke:#373735;stroke-width:3;stroke-miterlimit:10;}
	.st5{fill:#FFFFFF;}
	.st6{fill:none;stroke:#FDA47B;stroke-width:6;stroke-miterlimit:10;}
</style>
<g id="Layer_1" class="st0">
	<path class="st1" d="M224,234.9c1,0.7,12.7-8.5,26-25.4c7-8.9,16.5-41,13.7-63.9c-4.8-39.8-16.3-101.3-37.4-101.3
		c-13.5,0-59.3,50.7-48.4,135.9C179.2,190.4,194.7,214.9,224,234.9z"/>
	<path class="st2" d="M242.2,43.3c31,0,50.8,9.3,70.9,33.2c14.4,17.4,29.5,42.9,50.2,85.6c7.1,14.6,5.2,31.6-4.9,47.9
		c-15.4,24.5-46.6,42.4-74.3,42.4c-4.6,0-9-0.5-13.3-1.5c-28.4-6.3-50.8-16.7-66.8-31c-17.5-15.7-26.5-35.5-26.5-58.8
		c0-17.5,1.7-50.6,13.6-78.2C202.4,56.5,219.7,43.3,242.2,43.3 M242.2,40.9c-52.5,0-67,69.4-67,120.1s41,79.8,95,91.9
		c4.6,1.1,9.2,1.5,13.9,1.5c48.4,0,101.7-51,81.1-93.4c-19.3-39.9-34.8-67.4-50.5-86.1C293.5,49.5,272.5,40.9,242.2,40.9L242.2,40.9
		z"/>
	<g class="st3">
		<path class="st4" d="M243.1,216.9c-2.1,2.8-4.4,5.6-6.9,8.2c-18.1,19.3-44.5,34.6-78.6,45.7c-14.8,4.6-31.9,4.8-49.7,0.2
			c-16.7-4.3-33.1-12.8-46.4-23.7L60,246c-24.1-19.7-44.7-36.8-30.2-60.1c0.4-0.7,0.8-1.3,1.3-2c3.3-4.3,8.1-7.7,13.3-11.8
			c7.3-5.5,16.4-12.1,25-23.3c4.2-5.6,8-11.7,11.4-18.6c14.4-28.9,12.7-45.6,11.5-58.9c-0.6-7.1-1.2-13.4,0.6-20.3
			c2.1-7,4.6-12.8,8.3-17.6c12.5-16.3,34.5-18.3,60.1-20.5c2.5-0.2,5-0.6,7.5-0.7c44.7-4.1,68.1,36.9,79.8,72
			c8.3,24.6,11.8,49.2,13.2,65.4C264.3,174.9,258,197.5,243.1,216.9 M245.3,218.7c14.6-19.1,22.1-42,19.3-69c-2-21-6.1-44.4-13.3-66
			c-14.2-42.3-39.9-77.9-82.6-73.9C139.1,12.6,113.5,13.1,99,32c-3.6,4.8-6.6,10.9-8.7,18.5c-5.8,21.2,9.8,35-12,78.8
			c-3.5,7.1-7.3,13-11.2,18c-14.7,19.2-30.1,24.3-38.3,35c-0.6,0.8-1.1,1.4-1.5,2.2c-16.3,26,7.4,44.7,32.4,65.2
			c27.1,22.2,66.4,34.2,98.5,23.9c32.4-10.5,60.4-25.8,79.6-46.4C240.8,224.4,243.1,221.6,245.3,218.7L245.3,218.7z"/>
	</g>
</g>
<g id="Layer_2">
	<path class="st5" d="M219.4,234.7c1.1,0.7,13.4-8.7,27.4-26.2c7.3-9.1,17.4-42.3,14.4-66C256.1,101.4,244,38,221.8,38
		c-14.2,0-62.5,52.4-51,140.2C172.2,188.7,188.5,214,219.4,234.7z"/>
	<path class="st6" d="M238.5,36.9c32.6,0,53.6,9.6,74.7,34.2c15.2,17.9,31.1,44.3,52.9,88.4c7.5,15.1,5.5,32.6-5.2,49.4
		c-16.2,25.3-49.1,43.7-78.3,43.7c-4.8,0-9.5-0.5-14-1.5c-29.9-6.5-53.6-17.3-70.4-32c-18.5-16.2-27.9-36.6-27.9-60.7
		c0-18,1.8-52.3,14.3-80.7C196.7,50.6,214.8,36.9,238.5,36.9 M238.5,34.5c-55.3,0-70.6,71.6-70.6,123.9s43.2,82.4,100.1,94.8
		c4.8,1.1,9.7,1.5,14.6,1.5c51,0,107.2-52.6,85.5-96.4c-20.4-41.2-36.7-69.6-53.2-88.8C292.6,43.4,270.5,34.5,238.5,34.5L238.5,34.5
		z"/>
	<g>
		<path class="st6" d="M239.5,216.1c-2.2,2.9-4.7,5.8-7.3,8.4c-19.1,19.9-46.9,35.7-82.8,47.1c-15.6,4.8-33.6,4.9-52.4,0.2
			c-17.6-4.5-34.8-13.2-48.9-24.4l-1.6-1.4c-25.4-20.4-47.1-37.9-31.8-62c0.4-0.7,0.9-1.4,1.4-2c3.5-4.5,8.5-8,14-12.1
			c7.7-5.6,17.3-12.5,26.3-24.1c4.5-5.8,8.4-12,12-19.2c15.1-29.8,13.4-47,12.1-60.7c-0.7-7.4-1.3-13.9,0.7-21
			c2.2-7.2,4.9-13.2,8.7-18.1c13.2-16.8,36.4-18.9,63.4-21.1c2.6-0.2,5.2-0.6,7.9-0.7c47.1-4.3,71.7,38,84.1,74.3
			c8.7,25.4,12.4,50.7,13.9,67.5C261.9,172.7,255.2,196.1,239.5,216.1 M241.8,217.9c15.3-19.7,23.3-43.4,20.4-71.2
			c-2.1-21.6-6.4-45.8-14-68.1c-14.9-43.7-42-80.4-87.1-76.2c-31.1,2.9-58.1,3.4-73.4,22.9c-3.8,4.9-7,11.3-9.1,19.1
			c-6.1,21.8,10.3,36.1-12.6,81.3c-3.7,7.4-7.7,13.4-11.8,18.5c-15.5,19.8-31.7,25-40.4,36.1c-0.7,0.9-1.2,1.5-1.6,2.2
			c-17.2,26.9,7.8,46.1,34.2,67.2c28.5,22.9,70,35.3,103.9,24.6c34.2-10.9,63.7-26.6,83.9-47.9C237,223.8,239.5,220.9,241.8,217.9
			L241.8,217.9z"/>
	</g>
</g>
</svg>
