<?xml version="1.0" encoding="utf-8"?>
<!-- Generator: Adobe Illustrator 27.1.1, SVG Export Plug-In . SVG Version: 6.00 Build 0)  -->
<svg version="1.1" id="Layer_1" xmlns="http://www.w3.org/2000/svg" xmlns:xlink="http://www.w3.org/1999/xlink" x="0px" y="0px"
	 viewBox="0 0 758.9 283.8" style="enable-background:new 0 0 758.9 283.8;" xml:space="preserve">
<style type="text/css">
	.st0{display:none;}
	.st1{display:inline;}
	.st2{fill:#FCF7F5;}
	.st3{display:inline;fill:#333740;}
	.st4{fill:none;stroke:#373735;stroke-width:1.8;stroke-miterlimit:10;}
	.st5{display:none;fill:#E90E51;stroke:#E90E51;stroke-miterlimit:10;}
	.st6{fill:#E90E51;}
</style>
<g id="blobColor" class="st0">
	<g class="st1">
		<path class="st2" d="M155.5,64.7c22.6,0,39.8,13.3,51.2,39.7c11.9,27.6,13.7,60.9,13.7,78.4c0,23.4-8.9,43.3-26.5,59
			c-16,14.3-38.5,24.7-66.9,31.1c-4.3,0.9-8.7,1.5-13.3,1.5c-27.7,0-59-17.9-74.4-42.5c-10.2-16.3-12-33.4-4.9-48
			c20.7-42.8,35.8-68.5,50.2-85.8C104.5,74,124.4,64.7,155.5,64.7 M155.5,62.5c-30.4,0-51.4,8.6-72.7,34
			c-15.7,18.7-31.3,46.3-50.7,86.3c-20.6,42.6,32.9,93.7,81.3,93.7c4.6,0,9.3-0.4,13.8-1.5c54.1-12,95.2-41.3,95.2-92.1
			S208.1,62.5,155.5,62.5L155.5,62.5z"/>
	</g>
	<g class="st1">
		<path class="st2" d="M239.6-224.2v2.2c1.5,0,3.2,0.4,5.1,1.4c6,3.1,8.4,8.8,11.9,16.9c3.8,8.9,8.6,20.1,20.4,32.3
			c10.2,10.4,18.8,16.4,25.1,20.8c9.8,6.9,13.9,9.7,12.7,19.8c-1.8,13.8-10.2,18.8-22.1,25.9c-6,3.6-12.8,7.7-19.4,13.5
			c-5.5,4.9-10.1,9.5-14.1,13.7c-9.6,9.8-15.9,16.4-26.5,16.4c-1,0-2.2-0.1-3.4-0.2c-31.6-3.8-72-56.1-68.6-88.8
			c1.5-14.4,7.7-17.5,18.8-23.1c6.4-3.2,14.2-7.2,22.9-14.4c9.5-7.9,16.2-15.6,21.5-21.6c6.5-7.5,11-12.6,15.9-12.6L239.6-224.2
			 M239.6-224.2c-10.4,0-16.9,16.5-38.8,34.6c-23.4,19.4-39.8,14.4-42.3,38.8c-3.4,33.5,37.3,87.2,70.4,91.1
			c1.3,0.1,2.4,0.2,3.6,0.2c16.2,0,23.4-14.4,41.9-30.6c19.4-17,39.5-18.5,42.3-40.9c2.3-18.5-12.7-16.1-38.3-42.3
			c-22.5-22.9-18.9-42.3-32.9-49.4C243.4-223.7,241.5-224.2,239.6-224.2L239.6-224.2z"/>
	</g>
	<g class="st1">
		<path class="st2" d="M220.5,43.8c-1.7,2.3-3.7,4.6-5.8,6.8c-15.1,16.1-37.1,28.8-65.5,38c-12.3,3.9-26.6,4-41.4,0.2
			c-13.9-3.6-27.5-10.7-38.6-19.7L68,68C48,51.6,30.8,37.4,42.9,17.9c0.3-0.6,0.7-1.1,1.1-1.6c2.8-3.6,6.7-6.5,11.1-9.8
			c6.1-4.6,13.7-10.1,20.8-19.4c3.5-4.6,6.6-9.7,9.5-15.5c12-24.1,10.6-37.9,9.5-49c-0.5-5.9-1-11.2,0.5-16.9
			c1.7-5.8,3.9-10.7,6.9-14.6c10.4-13.6,28.7-15.2,50.1-17c2.1-0.2,4.1-0.5,6.3-0.6c37.2-3.4,56.7,30.7,66.5,60
			c6.9,20.5,9.8,40.9,11,54.4C238.2,8.8,232.9,27.5,220.5,43.8 M222.3,45.2c12.1-15.9,18.2-35,16.1-57.5c-1.6-17.5-5.1-37-11.1-55
			c-11.8-35.3-33.2-64.9-68.8-61.5c-24.6,2.3-45.9,2.8-58,18.5c-3,4-5.5,9.1-7.2,15.4c-4.8,17.6,8.2,29.2-10,65.6
			c-2.9,5.9-6.1,10.8-9.3,15C61.8,1.7,49,5.9,42.1,14.9c-0.5,0.7-0.9,1.2-1.3,1.8C27.2,38.4,47,54,67.8,71
			c22.5,18.5,55.3,28.5,82.1,19.9c27-8.8,50.3-21.5,66.3-38.6C218.6,49.9,220.5,47.6,222.3,45.2L222.3,45.2z"/>
	</g>
</g>
<g id="Layer_1_00000057842681895278077770000009826890698626825130_">
	<g class="st0">
		<path class="st3" d="M454.4-38.5v2.1c1.5,0,3.2,0.4,5.1,1.3c6,2.9,8.4,8.2,11.9,15.8C475.2-11,480-0.5,491.8,11
			c10.2,9.7,18.8,15.4,25.1,19.5c9.8,6.5,13.9,9.1,12.7,18.5c-1.8,12.9-10.2,17.6-22.1,24.3c-6,3.4-12.8,7.2-19.4,12.6
			c-5.5,4.6-10.1,8.9-14.1,12.8c-9.7,9.2-15.9,15.4-26.5,15.4c-1,0-2.2-0.1-3.4-0.2c-31.6-3.6-72-52.5-68.6-83.2
			c1.5-13.5,7.7-16.4,18.8-21.6c6.4-3,14.2-6.7,22.9-13.5c9.5-7.4,16.2-14.6,21.5-20.2c6.5-7,11-11.8,15.9-11.8L454.4-38.5
			 M454.4-38.5C444-38.5,437.5-23,415.6-6c-23.4,18.2-39.8,13.5-42.3,36.3c-3.4,31.4,37.3,81.7,70.4,85.3c1.3,0.1,2.4,0.2,3.6,0.2
			c16.2,0,23.4-13.5,41.9-28.7c19.4-15.9,39.5-17.3,42.3-38.3c2.3-17.3-12.7-15.1-38.3-39.6c-22.3-21.5-18.8-39.7-32.8-46.4
			C458.2-38,456.2-38.5,454.4-38.5L454.4-38.5z"/>
	</g>
</g>
<path class="st4" d="M498.6,184.4c1,52,106,97,137,93c71-9.2,95-72,94-98c-1.1-28.1-70.1-178.3-152-175
	C502.6,7.4,497.1,108.5,498.6,184.4z"/>
<path class="st4" d="M592.4,184.4c-1,52-106,97-137,93c-71-9.2-95-72-94-98c1.1-28.1,70.1-178.3,152-175
	C588.4,7.4,593.9,108.5,592.4,184.4z"/>
<path class="st4" d="M159.6,185.6c1,52,106,97,137,93c71-9.2,95-72,94-98c-1.1-28.1-70.1-178.3-152-175
	C163.6,8.6,158.1,109.7,159.6,185.6z"/>
<path class="st4" d="M253.4,185.6c-1,52-106,97-137,93c-71-9.2-95-72-94-98c1.1-28.1,70.1-178.3,152-175
	C249.4,8.6,254.9,109.7,253.4,185.6z"/>
<path class="st5" d="M452,189c-16.5,54.5-37,82-103,82c-51,0-89-42-92-77c-1.5-16.9,27.4-32.4,42-57c22-37,10.6-83.6,24-108
	c12.2-22.1,43.2-23,60-23C434.9,6,478,103,452,189z"/>
<path class="st6" d="M247.6,185.1c1,53.7,82.4,98.7,113.4,94.6c71-9.5,111-64,111-97.1C472,101.1,417,6.1,361,4
	C314,2.3,246.1,106.7,247.6,185.1z"/>
</svg>
