<?xml version="1.0" encoding="utf-8"?>
<!-- Generator: Adobe Illustrator 27.1.1, SVG Export Plug-In . SVG Version: 6.00 Build 0)  -->
<svg version="1.1" id="Layer_2" xmlns="http://www.w3.org/2000/svg" xmlns:xlink="http://www.w3.org/1999/xlink" x="0px" y="0px"
	 viewBox="0 0 127.8 120.8" style="enable-background:new 0 0 127.8 120.8;" xml:space="preserve">
<style type="text/css">
	.st0{fill:#76D6B4;}
	.st1{fill:#F9B51A;}
	.st2{fill:#E82D70;}
	.st3{fill:#5F6CFF;}
</style>
<path class="st0" d="M17.3,14.4C38.7-3.8,77.7-1.3,96.2,19.8s10.9,64.6-10.9,82.3C70.2,114.4,28,98.9,12.2,80.3
	C-2.9,62.6,1.1,28.1,17.3,14.4z"/>
<path class="st1" d="M71.5,118.2c-28-2.7-53.4-32.3-51.2-60.4S59,5,86.9,8.2c19.3,2.2,37.6,43.3,35.4,67.6
	C120.1,99,92.6,120.2,71.5,118.2z"/>
<path class="st2" d="M18.5,25.7C38.7,6.2,77.7,6.1,97.6,26s15.1,63.7-5.5,82.9c-14.2,13.2-57.4,0.5-74.4-17
	C1.5,75.1,3.2,40.4,18.5,25.7z"/>
<path class="st3" d="M124.7,61.5c-8.2,26.9-42.2,46-69.3,38.2S11.3,51.4,20,24.6C26,6.2,69.9-3.7,93.2,3.3
	C115.5,10,130.9,41.2,124.7,61.5z"/>
</svg>
